<svg width="114" height="55" viewBox="0 0 114 55" fill="none" xmlns="http://www.w3.org/2000/svg">
<path fill-rule="evenodd" clip-rule="evenodd" d="M26.4543 4.97881C25.6775 4.83323 25.0038 5.0243 24.3241 5.16987C22.3214 5.5975 20.6342 6.46186 18.9774 7.36261C15.7548 9.11862 13.3151 11.4069 11.197 13.8908C8.5631 16.9797 6.76062 20.3234 6.00808 23.9582C5.66215 25.6278 5.52863 27.3156 6.08091 28.9806C6.26297 29.522 6.56035 30.0406 6.83952 30.5592C7.01552 30.8958 7.38572 31.096 7.87124 31.0915C8.75123 31.0778 9.64943 31.1006 10.5052 30.9868C13.5214 30.5774 15.9672 29.34 18.2188 27.8524C20.0394 26.6423 21.6295 25.2912 22.819 23.6853C23.2984 23.0347 23.5594 22.9483 24.4697 23.1439C26.1387 23.4988 27.1765 24.3768 27.7955 25.5459C27.8866 25.7188 27.7773 25.9963 27.6438 26.1783C26.0598 28.371 23.8446 30.1452 21.2168 31.651C19.3597 32.7201 17.3448 33.548 15.0629 33.9711C13.3151 34.2941 11.5551 34.2987 9.80116 33.9848C7.53745 33.5799 5.66822 32.7292 4.29057 31.278C2.67017 29.5629 1.71735 27.7114 1.72342 25.5778C1.72342 23.6216 2.08148 21.7109 2.77334 19.8321C4.22381 15.9197 6.30546 12.2121 9.43702 8.87751C11.6643 6.50735 14.1647 4.32371 17.4783 2.74968C19.1048 1.97176 20.8466 1.42585 22.8069 1.31212C24.0692 1.23933 25.2526 1.4213 26.3693 1.84438C29.2642 2.93165 31.4247 5.89775 30.5083 8.50447C30.0046 9.93293 29.1185 11.2158 28.0504 12.435C26.8852 13.7679 25.4347 14.9098 23.9175 16.0198C23.2924 16.4747 22.6855 16.5475 21.9026 16.27C20.3368 15.7196 19.6025 14.7324 19.2444 13.5314C19.1352 13.1583 19.4932 12.9809 19.7967 12.7762C21.4535 11.6662 22.9343 10.4379 24.1542 9.04128C25.1313 7.92671 25.9506 6.75301 26.3633 5.44283C26.4057 5.3018 26.4239 5.15168 26.4543 4.97881Z" fill="#BF8345"/>
<path fill-rule="evenodd" clip-rule="evenodd" d="M60.5799 5.638C59.8152 6.09748 59.3479 6.5524 58.9109 7.03007C57.8913 8.15828 57.1509 9.39568 56.5926 10.6831C55.6155 12.9395 54.7294 15.2142 53.8191 17.4842C53.722 17.7253 53.6795 17.9801 53.5885 18.3395C54.256 18.244 54.8508 18.1985 55.4152 18.0711C56.9264 17.7299 57.8974 18.2531 58.6682 19.1447C59.2022 19.7589 59.4814 20.4367 59.5542 21.16C59.627 21.8697 59.4693 21.9698 58.5104 22.0653C56.4469 22.2746 54.426 22.6021 52.6114 23.4392C52.0105 23.7167 51.6768 24.0579 51.525 24.5628C50.9667 26.428 50.3598 28.2887 49.8075 30.1539C49.6619 30.6452 49.3766 30.9591 48.7637 31.1911C47.1068 31.8143 45.6017 31.5277 44.127 30.8545C43.7447 30.6816 43.69 30.4359 43.7993 30.1266C44.0481 29.4123 44.2848 28.6936 44.5033 27.9702C45.4075 24.9313 46.1965 21.8742 47.2282 18.8626C48.5634 14.9594 50.0806 11.088 52.0287 7.32577C52.6356 6.15662 53.376 5.0375 54.4381 4.05487C55.1482 3.39523 55.9493 2.81292 56.9628 2.41259C57.776 2.08959 58.6317 1.97586 59.5299 2.05775C63.0439 2.37165 66.0298 4.60988 65.9145 7.33942C65.8234 9.49576 65.2894 11.5884 64.197 13.5946C63.9239 14.0996 63.493 14.2634 62.795 14.277C60.944 14.318 59.7424 13.5582 58.7349 12.5301C58.4497 12.239 58.6135 11.9524 58.7895 11.6657C59.8031 10.0235 60.1733 8.25837 60.5677 6.49781C60.6163 6.2749 60.5738 6.04289 60.5738 5.63345L60.5799 5.638Z" fill="#BF8345"/>
<path fill-rule="evenodd" clip-rule="evenodd" d="M70.8243 18.3354C71.6436 18.2216 72.378 18.1397 73.1002 18.0124C73.9255 17.8668 74.5749 18.0806 75.1333 18.5037C76.1407 19.2589 76.6444 20.1915 76.7233 21.2514C76.7719 21.8838 76.608 21.9793 75.7644 22.0657C73.6949 22.2705 71.68 22.5889 69.8533 23.4123C69.2221 23.6944 68.8458 24.0356 68.6881 24.5769C68.1358 26.4467 67.5228 28.3028 66.9766 30.1679C66.831 30.6638 66.5275 30.9732 65.9206 31.1961C64.2638 31.8193 62.7526 31.5236 61.284 30.8503C60.9016 30.6729 60.8773 30.4272 60.9684 30.1179C61.5753 28.1299 62.1579 26.1373 62.7587 24.1447C63.2928 22.3796 63.7601 20.6009 64.3852 18.854C65.7871 14.9644 67.2436 11.0839 69.1978 7.32165C69.8047 6.1525 70.5512 5.03339 71.6133 4.05075C72.3233 3.39111 73.1244 2.80881 74.144 2.40847C74.9937 2.07638 75.8858 1.97175 76.8143 2.06728C80.2918 2.42667 83.2413 4.65125 83.0835 7.42629C82.9622 9.55533 82.4463 11.6252 81.36 13.6042C81.0808 14.1137 80.6378 14.2638 79.9459 14.2774C78.0949 14.3184 76.8932 13.5541 75.8919 12.5214C75.6066 12.2303 75.7887 11.9437 75.9647 11.6571C76.9721 10.0148 77.3484 8.2497 77.7368 6.48914C77.7854 6.26623 77.7429 6.03422 77.7429 5.69303C77.4698 5.85225 77.2513 5.94778 77.0874 6.07971C76.1346 6.82579 75.4185 7.69924 74.8723 8.63638C73.1184 11.6616 71.8378 14.8052 70.8243 18.0169C70.8 18.0852 70.8243 18.167 70.8243 18.3308V18.3354Z" fill="#BF8345"/>
<path fill-rule="evenodd" clip-rule="evenodd" d="M27.9232 23.7672C27.9535 21.8565 28.5301 20.0278 29.3615 18.2354C30.5814 15.5877 32.2018 13.0902 34.6536 10.952C35.4001 10.3015 36.2861 9.72372 37.1722 9.17782C38.9201 8.0951 41.6693 8.31801 43.1986 9.13687C45.4927 10.3652 46.8521 11.9938 46.9674 14.141C47.0646 15.9198 46.6579 17.6531 45.9479 19.3408C44.819 22.0112 43.2108 24.5133 40.85 26.7015C40.0428 27.4521 39.1507 28.1709 38.1493 28.7759C35.8735 30.1498 32.6205 29.9906 30.4964 28.4802C28.5301 27.0836 27.8867 25.9145 27.9171 23.7672H27.9232ZM41.8696 11.9256C40.765 12.4305 39.9821 13.0583 39.2599 13.7316C36.9841 15.8425 35.4122 18.2308 34.2773 20.7966C33.6097 22.3024 33.1485 23.8446 33.0635 25.4368C33.0514 25.6961 33.0939 25.96 33.1121 26.2693C37.6092 24.3131 42.2398 16.0335 41.8696 11.9301V11.9256Z" fill="#BF8345"/>
<path fill-rule="evenodd" clip-rule="evenodd" d="M104.143 16.4566C106.352 16.9661 107.062 18.2399 107.298 19.7321C107.414 20.4508 107.226 20.51 106.291 20.6965C104.75 21.0013 103.232 21.3743 101.709 21.7292C100.981 21.902 100.519 22.2478 100.313 22.8301C99.9976 23.7399 99.5849 24.6361 99.2268 25.5414C99.154 25.728 99.1419 25.9236 99.0872 26.2011C100.01 26.0601 100.841 25.9736 101.648 25.8053C102.911 25.5414 103.839 25.9099 104.622 26.5969C105.399 27.2792 105.824 28.0754 105.915 28.967C105.975 29.5448 105.86 29.6312 105.114 29.6858C101.964 29.9087 99.0994 30.7594 96.4412 31.9923C95.81 32.2834 95.282 32.3198 94.6448 32.1287C92.988 31.6329 92.2293 30.6275 91.847 29.4037C91.762 29.1308 91.9077 28.9079 92.2233 28.7441C92.5571 28.5712 92.8787 28.3893 93.255 28.1845C92.7937 27.5295 93.0729 26.8835 93.2125 26.2375C94.0622 22.2387 95.9981 18.522 98.4743 14.9508C99.1176 14.0228 99.8034 13.1084 100.507 12.2076C100.78 11.8573 100.926 11.5252 100.744 11.1249C100.671 10.9611 100.689 10.7701 100.659 10.5972C100.598 10.2605 100.75 9.99668 101.126 9.80561C101.497 9.62364 101.849 9.40983 102.243 9.2688C104.938 8.29071 107.735 7.64017 110.788 7.73116C111.735 7.75845 112.409 8.0587 112.955 8.58641C113.768 9.36888 114.023 10.2833 113.999 11.2477C113.986 11.7936 113.823 11.871 113.058 11.9028C111.771 11.962 110.479 12.0302 109.192 12.1166C108.791 12.1439 108.397 12.2531 108.002 12.3259C107.39 12.4396 107.007 12.6671 106.716 13.1493C106.242 13.9318 105.526 14.6324 104.926 15.3739C104.646 15.7196 104.416 16.0881 104.149 16.4612L104.143 16.4566Z" fill="#BF8345"/>
<path fill-rule="evenodd" clip-rule="evenodd" d="M88.6124 16.4475C90.5363 16.9843 91.7501 18.299 91.7683 19.823C91.7744 20.4645 91.6772 20.5646 90.8155 20.6783C89.1283 20.9012 87.514 21.2742 85.9482 21.7928C85.3777 21.9794 85.0075 22.2478 84.8315 22.7118C84.4795 23.6444 84.0729 24.5633 83.6966 25.4914C83.6177 25.6824 83.5934 25.8826 83.5206 26.1556C83.8119 26.1419 84.0365 26.1465 84.2489 26.1146C85.0196 26.0009 85.7843 25.8781 86.549 25.7552C87.1923 25.6552 87.7628 25.7734 88.2787 26.06C89.626 26.8152 90.2753 27.8479 90.3603 29.0807C90.3906 29.5539 90.2632 29.6403 89.6017 29.6858C86.4155 29.9087 83.5206 30.7685 80.826 32.0195C80.2677 32.2788 79.8064 32.3243 79.2117 32.1651C77.482 31.692 76.6809 30.673 76.3107 29.4174C76.2561 29.2218 76.4625 28.9306 76.6627 28.7623C76.9298 28.5394 77.306 28.3983 77.4942 28.2983C77.5245 27.6432 77.4942 27.0927 77.5913 26.5559C78.4166 22.3888 80.4073 18.5265 83.0048 14.8189C83.6359 13.9136 84.3096 13.0265 84.9954 12.1439C85.2321 11.8391 85.3534 11.5571 85.2138 11.2068C85.1228 10.9884 85.0621 10.7427 85.1107 10.5289C85.1592 10.2969 85.2867 10.0285 85.4991 9.86929C85.8025 9.63728 86.197 9.45531 86.5915 9.30973C89.3104 8.29525 92.1385 7.64016 95.2276 7.7266C96.2168 7.75389 96.9026 8.08144 97.4609 8.63645C98.2378 9.40527 98.4623 10.3015 98.4502 11.2386C98.4441 11.78 98.2681 11.8664 97.5095 11.8983C96.2532 11.9528 94.997 12.0256 93.7468 12.0984C93.4797 12.1166 93.2127 12.1712 92.9457 12.2212C92.1263 12.3805 91.4466 12.5533 91.0521 13.2767C90.5909 14.141 89.7716 14.8962 89.1222 15.7014C88.9341 15.938 88.7884 16.1927 88.6185 16.4429L88.6124 16.4475Z" fill="#BF8345"/>
<path fill-rule="evenodd" clip-rule="evenodd" d="M39.43 35.618C35.382 35.7955 31.4858 36.0548 27.6441 36.6371C26.9826 36.7372 26.3211 36.8782 25.6778 37.0374C25.2348 37.142 24.9252 37.0966 24.6036 36.8236C23.2927 35.7272 23.2199 34.4853 23.8146 33.1751C23.9057 32.9704 24.2395 32.7657 24.5247 32.6838C25.1862 32.4973 25.8841 32.3517 26.5821 32.2516C31.4069 31.5692 36.2681 31.1689 41.19 31.1734C42.1853 31.1734 42.7133 31.501 43.0471 32.1151C43.5508 33.0523 43.5022 34.0167 43.132 34.9675C42.9075 35.5453 42.6829 35.618 41.8454 35.6226C40.9958 35.6226 40.1461 35.6226 39.436 35.6226L39.43 35.618Z" fill="#BF8345"/>
<path fill-rule="evenodd" clip-rule="evenodd" d="M24.7309 3.68688C23.9541 3.5413 23.2804 3.73237 22.6007 3.87794C20.598 4.30557 18.9108 5.16993 17.254 6.07068C14.0314 7.82668 11.5917 10.115 9.4736 12.5988C6.83968 15.6878 5.03721 19.0315 4.28467 22.6663C3.93874 24.3359 3.80522 26.0236 4.35749 27.6887C4.53956 28.23 4.83694 28.7486 5.11611 29.2673C5.29211 29.6039 5.66231 29.8041 6.14783 29.7995C7.02782 29.7859 7.92602 29.8086 8.78174 29.6949C11.798 29.2855 14.2438 28.0481 16.4954 26.5605C18.316 25.3504 19.9061 23.9992 21.0956 22.3934C21.575 21.7428 21.836 21.6564 22.7464 21.852C24.4153 22.2068 25.4531 23.0848 26.0721 24.254C26.1632 24.4269 26.0539 24.7044 25.9204 24.8863C24.3364 27.0791 22.1213 28.8533 19.4934 30.3591C17.6363 31.4281 15.6214 32.2561 13.3395 32.6792C11.5917 33.0022 9.83167 33.0067 8.07775 32.6928C5.81404 32.288 3.9448 31.4372 2.56716 29.986C0.946753 28.2664 0 26.4149 0 24.2813C0 22.3251 0.358067 20.4144 1.04992 18.5356C2.5004 14.6233 4.58204 10.9156 7.71361 7.58103C9.94091 5.21087 12.4413 3.02724 15.7549 1.4532C17.3814 0.675279 19.1232 0.129368 21.0835 0.0156374C22.3458 -0.0571505 23.5292 0.12482 24.6459 0.547899C27.5408 1.63517 29.7013 4.60127 28.7849 7.20799C28.2812 8.63645 27.3952 9.91934 26.327 11.1385C25.1618 12.4715 23.7113 13.6133 22.1941 14.7233C21.569 15.1783 20.9621 15.251 20.1792 14.9735C18.6134 14.4231 17.8791 13.4359 17.521 12.2349C17.4118 11.8619 17.7698 11.6844 18.0733 11.4797C19.7301 10.3697 21.2109 9.14142 22.4308 7.7448C23.4079 6.63023 24.2272 5.45653 24.6399 4.14635C24.6823 4.00532 24.7005 3.8552 24.7309 3.68233V3.68688Z" fill="#232122"/>
<path fill-rule="evenodd" clip-rule="evenodd" d="M58.8504 4.3465C58.0858 4.80597 57.6184 5.2609 57.1815 5.73857C56.1619 6.86678 55.4215 8.10417 54.8632 9.39161C53.8861 11.648 53 13.9227 52.0897 16.1927C51.9925 16.4338 51.9501 16.6886 51.859 17.048C52.5266 16.9524 53.1214 16.907 53.6858 16.7796C55.1969 16.4384 56.168 16.9615 56.9387 17.8532C57.4728 18.4673 57.752 19.1452 57.8248 19.8685C57.8976 20.5782 57.7398 20.6783 56.7809 20.7738C54.7175 20.9831 52.6965 21.3106 50.8819 22.1477C50.2811 22.4252 49.9473 22.7664 49.7956 23.2713C49.2373 25.1365 48.6304 26.9972 48.0781 28.8624C47.9324 29.3537 47.6472 29.6676 47.0342 29.8996C45.3774 30.5228 43.8723 30.2362 42.3976 29.563C42.0152 29.3901 41.9606 29.1444 42.0698 28.8351C42.3187 28.1208 42.5554 27.4021 42.7738 26.6787C43.6781 23.6398 44.4671 20.5827 45.4988 17.5711C46.834 13.6679 48.3512 9.79649 50.2993 6.03427C50.9062 4.86511 51.6466 3.746 52.7087 2.76336C53.4187 2.10372 54.2198 1.52142 55.2334 1.12109C56.0466 0.798091 56.9023 0.68436 57.8005 0.766246C61.3144 1.08014 64.3003 3.31837 64.185 6.04792C64.094 8.20426 63.5599 10.2969 62.4675 12.3031C62.1944 12.8081 61.7635 12.9719 61.0656 12.9855C59.2146 13.0265 58.0129 12.2667 57.0055 11.2386C56.7202 10.9475 56.8841 10.6608 57.0601 10.3742C58.0736 8.73197 58.4438 6.96686 58.8383 5.20631C58.8869 4.98339 58.8444 4.75138 58.8444 4.34195L58.8504 4.3465Z" fill="#232122"/>
<path fill-rule="evenodd" clip-rule="evenodd" d="M69.101 17.0435C69.9203 16.9298 70.6546 16.8479 71.3768 16.7205C72.2022 16.575 72.8516 16.7888 73.4099 17.2118C74.4174 17.967 74.9211 18.8996 75 19.9596C75.0485 20.5919 74.8847 20.6875 74.0411 20.7739C71.9716 20.9786 69.9567 21.2971 68.13 22.1205C67.4988 22.4025 67.1225 22.7437 66.9647 23.2851C66.4124 25.1548 65.7995 27.0109 65.2533 28.8761C65.1076 29.372 64.8042 29.6813 64.1973 29.9042C62.5405 30.5275 61.0293 30.2318 59.5606 29.5585C59.1783 29.3811 59.154 29.1354 59.245 28.8261C59.8519 26.838 60.4346 24.8455 61.0354 22.8529C61.5694 21.0878 62.0368 19.309 62.6619 17.5621C64.0638 13.6725 65.5203 9.79204 67.4745 6.02981C68.0814 4.86066 68.8279 3.74155 69.8899 2.75891C70.6 2.09927 71.4011 1.51697 72.4207 1.11664C73.2703 0.784541 74.1625 0.679908 75.091 0.775442C78.5685 1.13483 81.518 3.35941 81.3602 6.13445C81.2388 8.26349 80.723 10.3334 79.6366 12.3123C79.3575 12.8218 78.9144 12.972 78.2226 12.9856C76.3716 13.0265 75.1699 12.2623 74.1685 11.2296C73.8833 10.9384 74.0654 10.6518 74.2414 10.3652C75.2488 8.72296 75.6251 6.95786 76.0135 5.1973C76.062 4.97439 76.0196 4.74238 76.0196 4.40119C75.7465 4.56041 75.528 4.65594 75.3641 4.78787C74.4113 5.53395 73.6952 6.4074 73.149 7.34454C71.395 10.3698 70.1145 13.5133 69.101 16.7251C69.0767 16.7933 69.101 16.8752 69.101 17.039V17.0435Z" fill="#232122"/>
<path fill-rule="evenodd" clip-rule="evenodd" d="M26.193 22.4707C26.2233 20.56 26.7999 18.7312 27.6313 16.9388C28.8512 14.2912 30.4716 11.7937 32.9234 9.65551C33.6699 9.00497 34.556 8.42722 35.442 7.88131C37.1899 6.79859 39.9391 7.0215 41.4685 7.84036C43.7625 9.06866 45.122 10.6973 45.2373 12.8445C45.3344 14.6233 44.9278 16.3565 44.2177 18.0443C43.0889 20.7147 41.4806 23.2168 39.1198 25.405C38.3126 26.1556 37.4205 26.8744 36.4191 27.4794C34.1433 28.8533 30.8903 28.6941 28.7662 27.1837C26.7999 25.7871 26.1566 24.618 26.1869 22.4707H26.193ZM40.1394 10.629C39.0348 11.134 38.252 11.7618 37.5297 12.4351C35.2539 14.5459 33.6821 16.9343 32.5472 19.5001C31.8796 21.0059 31.4183 22.5481 31.3334 24.1403C31.3212 24.3996 31.3637 24.6635 31.3819 24.9728C35.879 23.0166 40.5096 14.737 40.1394 10.6336V10.629Z" fill="#232122"/>
<path fill-rule="evenodd" clip-rule="evenodd" d="M102.419 15.1651C104.628 15.6746 105.338 16.9484 105.575 18.4405C105.69 19.1593 105.502 19.2184 104.568 19.405C103.026 19.7098 101.509 20.0828 99.9856 20.4376C99.2573 20.6105 98.796 20.9563 98.5897 21.5386C98.2741 22.4484 97.8614 23.3446 97.5034 24.2499C97.4305 24.4364 97.4184 24.632 97.3638 24.9095C98.2863 24.7685 99.1177 24.6821 99.9249 24.5138C101.187 24.2499 102.116 24.6184 102.899 25.3053C103.675 25.9877 104.1 26.7838 104.191 27.6755C104.252 28.2532 104.137 28.3397 103.39 28.3943C100.24 28.6172 97.3759 29.4679 94.7177 30.7007C94.0866 30.9919 93.5586 31.0283 92.9213 30.8372C91.2645 30.3413 90.5059 29.336 90.1235 28.1122C90.0386 27.8393 90.1842 27.6163 90.4998 27.4526C90.8336 27.2797 91.1553 27.0977 91.5315 26.893C91.0703 26.2379 91.3495 25.5919 91.4891 24.9459C92.3387 20.9472 94.2747 17.2304 96.7508 13.6593C97.3941 12.7312 98.0799 11.8168 98.7839 10.9161C99.057 10.5658 99.2027 10.2337 99.0206 9.83336C98.9478 9.66958 98.966 9.47852 98.9356 9.30564C98.8749 8.969 99.0267 8.70514 99.4029 8.51408C99.7731 8.33211 100.125 8.11829 100.52 7.97727C103.214 6.99918 106.012 6.34864 109.065 6.43962C110.011 6.46692 110.685 6.76717 111.231 7.29488C112.045 8.07735 112.299 8.99175 112.275 9.95619C112.263 10.5021 112.099 10.5794 111.334 10.6113C110.048 10.6704 108.755 10.7387 107.469 10.8251C107.068 10.8524 106.674 10.9616 106.279 11.0344C105.666 11.1481 105.284 11.3755 104.992 11.8578C104.519 12.6402 103.803 13.3408 103.202 14.0823C102.923 14.4281 102.692 14.7966 102.425 15.1696L102.419 15.1651Z" fill="#232122"/>
<path fill-rule="evenodd" clip-rule="evenodd" d="M86.8831 15.1556C88.807 15.6924 90.0208 17.0071 90.039 18.5311C90.045 19.1725 89.9479 19.2726 89.0861 19.3864C87.399 19.6093 85.7847 19.9823 84.2189 20.5009C83.6484 20.6874 83.2782 20.9558 83.1022 21.4199C82.7502 22.3525 82.3436 23.2714 81.9673 24.1995C81.8884 24.3905 81.8641 24.5907 81.7913 24.8636C82.0826 24.85 82.3072 24.8545 82.5196 24.8227C83.2903 24.709 84.055 24.5861 84.8197 24.4633C85.463 24.3632 86.0335 24.4815 86.5493 24.7681C87.8966 25.5233 88.546 26.556 88.631 27.7888C88.6613 28.2619 88.5339 28.3484 87.8724 28.3939C84.6862 28.6168 81.7913 29.4766 79.0967 30.7276C78.5384 30.9869 78.0771 31.0324 77.4824 30.8732C75.7527 30.4001 74.9516 29.381 74.5814 28.1254C74.5268 27.9298 74.7331 27.6387 74.9334 27.4704C75.2004 27.2474 75.5767 27.1064 75.7649 27.0063C75.7952 26.3512 75.7649 25.8008 75.862 25.264C76.6873 21.0969 78.6779 17.2346 81.2754 13.5269C81.9066 12.6216 82.5803 11.7345 83.2661 10.852C83.5027 10.5472 83.6241 10.2651 83.4845 9.91484C83.3935 9.69647 83.3328 9.45081 83.3814 9.237C83.4299 9.00499 83.5574 8.73658 83.7698 8.57736C84.0732 8.34535 84.4677 8.16338 84.8622 8.0178C87.5811 7.00332 90.4092 6.34823 93.4983 6.43467C94.4875 6.46196 95.1733 6.78951 95.7316 7.34451C96.5085 8.11334 96.733 9.00954 96.7209 9.94668C96.7148 10.488 96.5388 10.5745 95.7802 10.6063C94.5239 10.6609 93.2676 10.7337 92.0174 10.8065C91.7504 10.8247 91.4834 10.8793 91.2163 10.9293C90.397 11.0885 89.7173 11.2614 89.3228 11.9847C88.8616 12.8491 88.0423 13.6043 87.3929 14.4095C87.2048 14.646 87.0591 14.9008 86.8892 15.151L86.8831 15.1556Z" fill="#232122"/>
<path fill-rule="evenodd" clip-rule="evenodd" d="M37.7057 34.3259C33.6577 34.5034 29.7614 34.7627 25.9198 35.345C25.2583 35.445 24.5968 35.5861 23.9535 35.7453C23.5105 35.8499 23.2009 35.8044 22.8793 35.5315C21.5684 34.4351 21.4956 33.1932 22.0903 31.883C22.1814 31.6783 22.5152 31.4736 22.8004 31.3917C23.4619 31.2052 24.1598 31.0596 24.8578 30.9595C29.6826 30.2771 34.5438 29.8768 39.4657 29.8813C40.461 29.8813 40.989 30.2089 41.3228 30.823C41.8265 31.7602 41.7779 32.7246 41.4077 33.6754C41.1832 34.2531 40.9586 34.3259 40.1211 34.3305C39.2715 34.3305 38.4218 34.3305 37.7117 34.3305L37.7057 34.3259Z" fill="#232122"/>
<path d="M38.7745 48.6063H14.347C14.1771 48.6063 14.0436 48.5062 14.0436 48.3787C14.0436 48.2513 14.1771 48.1512 14.347 48.1512H38.7745C38.9444 48.1512 39.0779 48.2513 39.0779 48.3787C39.0779 48.5062 38.9444 48.6063 38.7745 48.6063Z" fill="#BD8448"/>
<path d="M38.7744 51.2814H19.809C19.6391 51.2814 19.5056 51.1812 19.5056 51.0538C19.5056 50.9263 19.6391 50.8262 19.809 50.8262H38.7744C38.9443 50.8262 39.0778 50.9263 39.0778 51.0538C39.0778 51.1812 38.9443 51.2814 38.7744 51.2814Z" fill="#BD8448"/>
<path d="M38.7738 45.7631H25.1187C24.9488 45.7631 24.8152 45.663 24.8152 45.5355C24.8152 45.4081 24.9488 45.3079 25.1187 45.3079H38.7738C38.9437 45.3079 39.0772 45.4081 39.0772 45.5355C39.0772 45.663 38.9437 45.7631 38.7738 45.7631Z" fill="#BD8448"/>
<path d="M38.7744 42.6924H20.7193C20.5494 42.6924 20.4159 42.5922 20.4159 42.4648C20.4159 42.3373 20.5494 42.2372 20.7193 42.2372H38.7744C38.9444 42.2372 39.0779 42.3373 39.0779 42.4648C39.0779 42.5922 38.9444 42.6924 38.7744 42.6924Z" fill="#BD8448"/>
<path fill-rule="evenodd" clip-rule="evenodd" d="M91.0885 42.3147C89.0008 42.7696 87.0466 43.1927 84.9953 43.634C85.0074 43.6158 84.9285 43.6795 84.9164 43.7477C84.619 46.1179 83.0168 48.0195 81.0323 49.78C80.0795 50.6216 79.0174 51.3768 77.7126 51.9045C77.3242 52.0592 76.9115 52.1911 76.4866 52.2776C74.9815 52.5824 73.8224 51.9591 73.7617 50.7763C73.7374 50.2713 73.8527 49.7664 73.9195 49.1113C73.6221 49.3115 73.4218 49.4434 73.2216 49.5844C72.0138 50.4442 70.8243 51.3222 69.5863 52.1547C69.1675 52.4368 68.6335 52.6597 68.1055 52.8189C67.0252 53.1419 66.1088 52.7097 65.9935 51.8408C65.951 51.5451 65.9571 51.213 66.0906 50.9355C66.5579 50.0075 67.0252 49.0749 67.6139 48.1923C68.1115 47.4417 68.7791 46.7548 69.3678 46.036C69.7198 45.6038 70.0718 45.1716 70.3206 44.6439C70.1082 44.7395 69.8776 44.8122 69.6894 44.926C67.4743 46.2271 65.684 47.833 63.9664 49.4843C63.0258 50.3896 62.164 51.3404 61.2658 52.2685C61.0473 52.4959 60.8409 52.7325 60.5739 52.9281C60.2583 53.1647 59.8517 53.2329 59.4572 53.0373C59.0992 52.8599 59.0263 52.5733 59.1841 52.2912C59.5665 51.6088 59.967 50.9355 60.3736 50.2622C62.5949 46.5956 64.8343 42.9289 67.0373 39.2576C67.4257 38.6071 67.6988 37.9201 68.0387 37.2514C68.1844 36.9693 68.3421 36.6782 68.5606 36.4234C68.7548 36.2005 69.0704 36.0686 69.4467 36.2142C69.7987 36.3506 69.9019 36.5872 69.7926 36.8647C69.5802 37.3742 69.386 37.8928 69.119 38.3887C68.0326 40.3722 66.9342 42.3466 65.8175 44.3164C65.3259 45.1853 64.7736 46.0315 64.2578 46.8913C64.1789 47.0232 64.1303 47.1597 64.1971 47.3598C64.628 47.005 65.0589 46.6501 65.4898 46.2999C66.7157 45.3036 67.9659 44.3255 69.5195 43.6112C69.9747 43.402 70.4784 43.2064 71.0003 43.1245C71.9835 42.9653 72.736 43.5203 72.469 44.239C72.2263 44.8941 71.8196 45.5219 71.3887 46.1224C70.4966 47.3553 69.5074 48.5472 68.6213 49.78C68.2754 50.2577 68.0812 50.7991 67.8141 51.3131C67.887 51.3495 67.9598 51.3905 68.0266 51.4269C68.4696 51.1675 68.9369 50.931 69.3435 50.6444C72.1716 48.6427 74.7631 46.4864 77.0693 44.1299C77.3302 43.8615 77.5973 43.5931 77.9007 43.3565C78.1799 43.1427 78.5319 43.0517 78.9142 43.2382C79.2723 43.4111 79.424 43.6658 79.3148 43.9615C79.2116 44.2299 79.0477 44.4847 78.8717 44.7304C78.1192 45.7858 77.2938 46.8185 76.602 47.8966C76.1529 48.6018 75.8555 49.3706 75.552 50.1212C75.4549 50.3669 75.5338 50.6535 75.5338 50.9264C76.2439 51.0629 76.7051 50.8173 77.1482 50.5989C78.7079 49.8301 79.9277 48.8019 80.9776 47.6601C81.9972 46.5637 82.8287 45.3991 83.0836 44.048C83.1078 43.9251 83.1018 43.8023 83.1139 43.6294C82.7194 43.5658 82.3614 43.5066 82.0033 43.4429C81.093 43.2837 80.2494 43.0335 79.6182 42.483C78.9081 41.8689 78.7504 41.1137 79.2055 40.4996C79.6486 39.9082 80.6317 39.6034 81.6816 39.7398C83.0168 39.9127 83.7997 40.5996 84.4005 41.4367C84.5583 41.6596 84.6615 41.9053 84.8314 42.2192C85.4201 42.1373 86.027 42.1009 86.5914 41.969C88.0783 41.6141 89.553 41.2183 91.0278 40.8408C91.3494 40.7589 91.659 40.6451 91.9928 40.5951C93.0245 40.4359 93.7709 40.9681 93.5343 41.7461C93.3947 42.2146 93.1337 42.6696 92.8424 43.0972C91.926 44.4347 90.9671 45.7585 90.0325 47.0914C89.8626 47.3325 89.7108 47.5782 89.6926 47.9057C89.9536 47.6646 90.2267 47.4281 90.4816 47.1824C92.4601 45.3218 94.566 43.5521 96.9571 41.9872C97.7218 41.4867 98.5533 41.0364 99.3968 40.6087C99.8702 40.3676 100.41 40.1857 100.944 40.0355C102.978 39.4714 104.483 40.2812 104.495 41.9144C104.495 42.6696 104.264 43.3838 103.803 44.0525C103.457 44.5484 103.081 45.0397 102.656 45.4946C102.255 45.9268 101.764 46.309 101.181 46.8321C102.431 46.4454 103.323 45.9086 104.191 45.3536C105.969 44.2163 107.408 42.8652 108.64 41.3867C108.84 41.1501 109.022 40.9044 109.259 40.6861C109.556 40.4177 109.957 40.3631 110.363 40.5269C110.782 40.6952 110.885 40.9818 110.758 41.3139C110.709 41.4367 110.63 41.5504 110.545 41.6596C108.567 44.1481 106.176 46.3408 102.765 47.8102C101.636 48.297 100.435 48.6473 99.1237 48.7383C97.91 48.8247 96.7508 48.6791 95.6705 48.2515C94.7116 47.8739 94.0865 47.2961 93.9166 46.3954C93.7042 46.541 93.516 46.6319 93.3825 46.7593C91.0157 49.0294 88.6548 51.3086 86.288 53.5787C85.9966 53.8607 85.6993 54.1428 85.3716 54.3975C84.8618 54.7888 84.3702 54.857 83.915 54.6341C83.4781 54.4203 83.302 54.0154 83.563 53.5468C84.1396 52.5096 84.704 51.4678 85.3898 50.4715C87.1133 47.9512 88.8915 45.4537 90.6515 42.9516C90.7911 42.7514 90.9186 42.5467 91.0824 42.3011L91.0885 42.3147ZM94.6752 45.6311C95.1365 45.8358 95.5249 45.986 95.8708 46.1725C96.4049 46.4636 96.9693 46.5728 97.5944 46.409C98.1042 46.2726 98.6322 46.1406 99.0752 45.9223C100.659 45.1398 101.697 44.0207 102.322 42.6923C102.468 42.3875 102.528 42.0463 102.528 41.7188C102.528 41.2684 102.237 41.1274 101.667 41.2729C101.224 41.3867 100.781 41.5368 100.38 41.7233C98.1709 42.7605 96.4109 44.1663 94.6752 45.6266V45.6311ZM80.7652 41.0864C80.8623 41.8416 81.6877 42.2374 82.8347 42.1145C82.3128 41.2229 81.8698 40.9909 80.7652 41.0864Z" fill="black"/>
<path fill-rule="evenodd" clip-rule="evenodd" d="M62.2552 37.4467C61.5148 37.0464 60.7865 37.1101 60.0825 37.1556C58.0191 37.2875 56.0831 37.7788 54.2928 38.5385C53.2307 38.9889 52.2657 39.5576 51.2644 40.0853C51.0459 40.199 50.8638 40.3628 50.6939 40.522C50.1355 41.0543 50.1659 41.3409 50.9427 41.7048C51.6042 42.0142 52.3325 42.2371 53.0304 42.5055C54.0864 42.9104 55.191 43.2652 56.1923 43.7429C58.8505 45.0167 59.6152 46.941 58.4196 49.1246C57.4547 50.8898 55.7493 52.1954 53.6434 53.2008C51.0337 54.4518 48.1813 55.1433 45.0437 54.975C44.6067 54.9522 44.1637 54.884 43.751 54.7794C42.0821 54.3426 41.3902 53.2008 42.0092 51.9543C42.5676 50.8215 43.569 49.898 44.7585 49.1383C46.7491 47.869 48.855 46.6953 50.9184 45.4852C51.0762 45.3943 51.2704 45.3215 51.4586 45.2805C51.8166 45.1986 52.1322 45.2623 52.3628 45.4989C52.6056 45.7491 52.5267 45.9993 52.2839 46.1995C52.0594 46.386 51.7741 46.5316 51.5071 46.6908C49.9717 47.6234 48.3998 48.5196 46.919 49.4931C46.0815 50.0436 45.3532 50.6987 44.6614 51.3583C44.1819 51.8087 43.5811 52.3728 43.9695 52.9415C44.3701 53.5238 45.335 53.4146 46.0997 53.3827C48.94 53.2599 51.4646 52.5184 53.6555 51.1491C54.9239 50.3529 55.9799 49.4294 56.5686 48.2466C57.224 46.9365 56.7749 45.8082 55.1849 45.0622C54.2685 44.63 53.261 44.3024 52.3021 43.9249C51.4343 43.5791 50.5118 43.288 49.7168 42.8649C48.066 41.9823 47.9447 40.7085 49.3344 39.5849C50.4572 38.675 51.8227 37.9972 53.2732 37.4285C55.6765 36.4823 58.1829 35.7772 60.9504 35.8044C61.5815 35.809 62.2491 35.9136 62.8196 36.1092C64.0394 36.5278 64.4036 37.383 63.7967 38.2838C63.5721 38.6204 63.2687 38.9434 62.9167 39.2118C61.2113 40.5129 59.2329 41.5501 57.0723 42.3827C56.8356 42.4736 56.5686 42.5464 56.3016 42.5737C55.7372 42.6329 55.2881 42.4327 55.1667 42.0961C55.0514 41.7731 55.2274 41.541 55.7978 41.3363C57.7217 40.6539 59.4271 39.7304 61.0232 38.6887C61.357 38.4749 61.6544 38.2201 61.9335 37.9653C62.0731 37.8334 62.1399 37.6605 62.2673 37.4558L62.2552 37.4467Z" fill="black"/>
<path fill-rule="evenodd" clip-rule="evenodd" d="M84.2064 53.7967C84 53.7967 83.7937 53.7467 83.5995 53.6511C83.0715 53.3918 82.9137 52.9232 83.1929 52.4274L83.3628 52.1226C83.8726 51.2036 84.4066 50.2483 85.0196 49.3475C86.2213 47.587 87.4775 45.8082 88.6852 44.0932C89.2193 43.338 89.7473 42.5828 90.2814 41.8276C90.3724 41.6957 90.4574 41.5638 90.5545 41.4182V41.4091L84.8375 42.6511C84.8375 42.6511 84.8254 42.6693 84.8254 42.6738C84.4977 45.2896 82.5556 47.3049 80.9049 48.7652C79.7821 49.757 78.714 50.4439 77.5427 50.917C77.1239 51.0854 76.6991 51.2127 76.2864 51.2992C76.0194 51.3538 75.7584 51.3811 75.5096 51.3811C74.2655 51.3811 73.4219 50.7214 73.3673 49.6933C73.3491 49.3475 73.3976 49.0063 73.4522 48.6151C73.4644 48.515 73.4826 48.4104 73.4947 48.3058C73.343 48.4104 73.2155 48.4968 73.0881 48.5833C72.7361 48.8335 72.3902 49.0837 72.0382 49.3339C71.2007 49.9389 70.3328 50.5622 69.4467 51.1536C69.0523 51.4174 68.5243 51.654 67.9234 51.836C67.6685 51.9133 67.4136 51.9497 67.1709 51.9497C66.3152 51.9497 65.6961 51.4811 65.599 50.7624C65.5444 50.3757 65.5808 50.0572 65.7083 49.807C66.1392 48.9427 66.6308 47.9691 67.2376 47.0547C67.5775 46.5361 68.0084 46.0448 68.4211 45.5671C68.6153 45.3397 68.8095 45.1167 68.9976 44.8893C69.295 44.5253 69.5681 44.1887 69.7866 43.8066C69.7016 43.843 69.6167 43.8839 69.5438 43.9248C67.4622 45.1486 65.7629 46.6225 63.8451 48.465C63.22 49.0655 62.6192 49.7024 62.0366 50.312C61.7392 50.6259 61.4479 50.9352 61.1444 51.2446L61.0109 51.3811C60.8349 51.563 60.6589 51.7541 60.4404 51.9179C60.222 52.0816 59.961 52.1726 59.694 52.1726C59.4998 52.1726 59.3177 52.1271 59.1356 52.0407C58.729 51.8405 58.6076 51.5084 58.8079 51.1536C59.1417 50.5622 59.518 49.9162 59.9974 49.1201L62.1944 45.4989C63.6873 43.0377 65.1803 40.5766 66.6611 38.1155C66.9039 37.7151 67.0981 37.292 67.2923 36.8781C67.4136 36.6233 67.529 36.3686 67.6625 36.1138C67.8081 35.8317 67.972 35.5315 68.1965 35.2676C68.3725 35.0629 68.6274 34.9446 68.8945 34.9446C69.0219 34.9446 69.1494 34.9719 69.2768 35.0174C69.6834 35.1767 69.8351 35.4633 69.6956 35.7999L69.5803 36.082C69.4103 36.4959 69.2404 36.9236 69.0158 37.333C67.9113 39.3529 66.7946 41.35 65.7083 43.2652C65.3866 43.8293 65.0468 44.3843 64.7008 44.9393C64.5127 45.2396 64.3246 45.5444 64.1425 45.8446C64.1122 45.8947 64.0879 45.9402 64.0757 45.9902L64.2639 45.8355C64.5491 45.599 64.8404 45.3624 65.1257 45.1258C66.3819 44.1023 67.6382 43.1287 69.1858 42.419C69.556 42.2507 70.1204 42.0142 70.7091 41.9186C70.8305 41.9004 70.9518 41.8868 71.0732 41.8868C71.5162 41.8868 71.9168 42.0278 72.1595 42.2689C72.4084 42.5146 72.4812 42.8376 72.3538 43.1742C72.0867 43.893 71.6255 44.5708 71.2613 45.0849C70.8183 45.6991 70.351 46.3041 69.8776 46.9091C69.4164 47.5051 68.9369 48.1238 68.4878 48.7425C68.2572 49.0655 68.0873 49.4249 67.9295 49.7706C67.8688 49.9071 67.8021 50.0436 67.7353 50.1801L67.7656 50.1937C67.8749 50.13 67.9902 50.0663 68.0994 50.0026C68.3968 49.8343 68.7063 49.6614 68.9794 49.4704C71.8986 47.4005 74.49 45.2168 76.687 42.9741C76.9358 42.7238 77.215 42.4372 77.5306 42.187C77.743 42.0233 77.9857 41.9323 78.2345 41.9323C78.4045 41.9323 78.5683 41.9732 78.7383 42.0506C79.1631 42.2553 79.327 42.5646 79.1995 42.9013C79.0903 43.1924 78.9082 43.4654 78.7443 43.6928C78.4894 44.0522 78.2224 44.4071 77.9554 44.7665C77.4517 45.4443 76.9297 46.1449 76.4746 46.8546C76.074 47.4824 75.7888 48.1738 75.5217 48.8426L75.4307 49.0609C75.37 49.2065 75.3882 49.3794 75.4064 49.5614C75.4064 49.6205 75.4186 49.6796 75.4186 49.7388C75.5035 49.7524 75.5885 49.757 75.6674 49.757C76.0922 49.757 76.4078 49.6023 76.7477 49.434L76.8023 49.4067C78.1799 48.7243 79.3876 47.8008 80.5954 46.4997C81.8213 45.1804 82.4646 44.0795 82.677 42.9377C82.6891 42.8603 82.6952 42.7875 82.6952 42.6966V42.6283L82.4889 42.5919C82.2218 42.5464 81.9669 42.5055 81.712 42.46C80.9474 42.3281 79.9703 42.0915 79.242 41.4683C78.4894 40.8177 78.3256 40.0079 78.8111 39.3574C79.2116 38.8251 80.0006 38.5067 80.9231 38.5067C81.093 38.5067 81.269 38.5203 81.445 38.5431C82.9744 38.7433 83.7573 39.5849 84.2671 40.2991C84.3763 40.4538 84.4613 40.613 84.5523 40.795C84.5887 40.8632 84.6251 40.9314 84.6615 41.0042C84.8011 40.986 84.9468 40.9678 85.0924 40.9542C85.493 40.9087 85.8996 40.8632 86.2819 40.7722C87.3501 40.5175 88.4243 40.24 89.4681 39.967L90.7183 39.644C90.8215 39.6167 90.9186 39.5894 91.0218 39.5576C91.2403 39.4939 91.4648 39.4302 91.7015 39.3938C91.835 39.3756 91.9625 39.362 92.0838 39.362C92.539 39.362 92.9274 39.4939 93.1823 39.7304C93.4433 39.9761 93.5343 40.3127 93.4251 40.6767C93.2976 41.0952 93.0731 41.5319 92.715 42.0551C92.0899 42.965 91.4527 43.8703 90.8094 44.771C90.5059 45.1941 90.2025 45.6217 89.9051 46.0493C89.8262 46.1585 89.7534 46.2723 89.6927 46.3905C89.8323 46.2677 89.9658 46.1403 90.0993 46.0129C92.3751 43.8703 94.4386 42.2143 96.5991 40.8041C97.4427 40.2491 98.3591 39.7714 99.057 39.4165C99.4819 39.2027 99.9977 39.0117 100.641 38.8342C101.084 38.7114 101.515 38.6477 101.922 38.6477C103.415 38.6477 104.386 39.4984 104.398 40.8177C104.398 41.582 104.167 42.319 103.688 43.0059C103.293 43.5746 102.917 44.0477 102.528 44.4617C102.249 44.7574 101.94 45.0303 101.576 45.3442C101.551 45.367 101.521 45.3897 101.497 45.4125C102.407 45.0622 103.129 44.6254 103.845 44.1705C105.484 43.1242 106.928 41.8367 108.264 40.2263L108.379 40.0898C108.537 39.8988 108.701 39.6941 108.901 39.5166C109.107 39.3256 109.374 39.2255 109.666 39.2255C109.842 39.2255 110.018 39.2619 110.194 39.3347C110.649 39.5166 110.819 39.8442 110.661 40.2536C110.618 40.3673 110.546 40.4902 110.436 40.6266C108.112 43.5518 105.624 45.5171 102.601 46.8182C101.333 47.3641 100.119 47.6734 98.8992 47.7644C98.6747 47.7826 98.4501 47.7871 98.2256 47.7871C97.206 47.7871 96.2411 47.6097 95.3611 47.264C94.3779 46.8773 93.7892 46.3041 93.5768 45.5216H93.5647C93.4433 45.6035 93.3401 45.6672 93.2673 45.74C91.8471 47.1048 90.4331 48.465 89.013 49.8298L86.1727 52.5593C85.8693 52.8505 85.5719 53.1325 85.2442 53.3873C84.9043 53.6511 84.5523 53.7876 84.2064 53.7876V53.7967ZM94.9362 44.63C95.2154 44.7483 95.4764 44.862 95.7191 44.9939C96.0772 45.1895 96.4231 45.2851 96.7751 45.2851C96.945 45.2851 97.1211 45.2623 97.2971 45.2123L97.4488 45.1713C97.8979 45.0531 98.3591 44.9257 98.7475 44.7392C100.21 44.0204 101.278 42.9513 101.934 41.5683C102.067 41.2908 102.134 40.9678 102.128 40.6357C102.128 40.2491 101.903 40.2491 101.794 40.2491C101.703 40.2491 101.594 40.2673 101.466 40.2991C100.993 40.4219 100.574 40.5675 100.21 40.7404C98.0557 41.7503 96.3503 43.1014 94.6631 44.5208C94.7542 44.5617 94.8452 44.5981 94.9302 44.6345L94.9362 44.63ZM80.6925 40.0989C80.8199 40.6221 81.3722 40.9314 82.1915 40.9314C82.2461 40.9314 82.3068 40.9314 82.3614 40.9314C81.9609 40.2946 81.6089 40.0944 80.9413 40.0944C80.8624 40.0944 80.7774 40.0944 80.6925 40.1035V40.0989Z" fill="#BD8448"/>
<path d="M68.9006 35.0681C68.9977 35.0681 69.1009 35.0863 69.2101 35.1318C69.5621 35.2683 69.6653 35.5048 69.556 35.7823C69.3436 36.2918 69.1494 36.8105 68.8824 37.3063C67.7961 39.2898 66.6976 41.2642 65.5809 43.234C65.0893 44.1029 64.537 44.9491 64.0212 45.8089C63.9423 45.9408 63.8937 46.0773 63.9605 46.2774C64.3914 45.9226 64.8223 45.5678 65.2532 45.2175C66.4791 44.2212 67.7293 43.2431 69.2829 42.5289C69.7381 42.3196 70.2418 42.124 70.7638 42.0421C70.8791 42.0239 70.9883 42.0148 71.0975 42.0148C71.9108 42.0148 72.4691 42.5198 72.2385 43.1567C71.9957 43.8117 71.5891 44.4395 71.1582 45.04C70.2661 46.2729 69.2769 47.4648 68.3908 48.6976C68.0449 49.1753 67.8507 49.7167 67.5836 50.2307C67.6565 50.2671 67.7293 50.3081 67.7961 50.3445C68.2391 50.0852 68.7064 49.8486 69.113 49.562C71.9411 47.5603 74.5326 45.404 76.8388 43.0475C77.0997 42.7791 77.3668 42.5107 77.6702 42.2741C77.8462 42.1422 78.0465 42.0557 78.265 42.0557C78.3985 42.0557 78.538 42.0876 78.6837 42.1558C79.0418 42.3287 79.1935 42.5835 79.0843 42.8792C78.9811 43.1476 78.8172 43.4023 78.6412 43.648C77.8887 44.7034 77.0633 45.7361 76.3714 46.8142C75.9223 47.5194 75.625 48.2882 75.3215 49.0388C75.2244 49.2845 75.3033 49.5711 75.3033 49.844C75.4429 49.8713 75.5764 49.885 75.6978 49.885C76.1954 49.885 76.5596 49.6939 76.9116 49.5165C78.4713 48.7477 79.6911 47.7195 80.7411 46.5777C81.7606 45.4813 82.5921 44.3167 82.847 42.9656C82.8713 42.8428 82.8652 42.7199 82.8773 42.5471C82.4829 42.4834 82.1248 42.4242 81.7667 42.3605C80.8564 42.2013 80.0128 41.9511 79.3816 41.4006C78.6716 40.7865 78.5138 40.0313 78.9689 39.4172C79.3452 38.9213 80.0978 38.6256 80.9535 38.6256C81.1173 38.6256 81.2812 38.6347 81.4511 38.6575C82.7863 38.8303 83.5692 39.5173 84.17 40.3543C84.3278 40.5772 84.431 40.8229 84.6009 41.1368C85.1896 41.0549 85.7965 41.0185 86.3609 40.8866C87.8478 40.5317 89.3225 40.136 90.7973 39.7584C91.1189 39.6765 91.4345 39.5628 91.7622 39.5127C91.8836 39.4945 92.005 39.4854 92.1142 39.4854C92.9578 39.4854 93.5101 39.9813 93.3038 40.6637C93.1642 41.1322 92.9032 41.5872 92.6119 42.0148C91.6955 43.3523 90.7366 44.6761 89.802 46.009C89.6321 46.2501 89.4803 46.4958 89.4621 46.8233C89.7231 46.5822 89.9962 46.3457 90.2511 46.1C92.2296 44.2394 94.3355 42.4697 96.7266 40.9048C97.4913 40.4044 98.3228 39.954 99.1663 39.5264C99.6397 39.2852 100.18 39.1033 100.714 38.9532C101.151 38.8303 101.564 38.7757 101.94 38.7757C103.324 38.7757 104.252 39.5491 104.264 40.832C104.264 41.5872 104.034 42.3014 103.572 42.9701C103.226 43.466 102.85 43.9573 102.425 44.4122C102.025 44.8444 101.533 45.2266 100.951 45.7497C102.201 45.363 103.093 44.8262 103.961 44.2712C105.739 43.1339 107.177 41.7828 108.409 40.3043C108.61 40.0677 108.792 39.8221 109.028 39.6037C109.21 39.4354 109.435 39.3535 109.678 39.3535C109.823 39.3535 109.981 39.3853 110.133 39.449C110.552 39.6173 110.655 39.9039 110.527 40.236C110.479 40.3589 110.4 40.4726 110.315 40.5818C108.336 43.0702 105.945 45.263 102.535 46.7324C101.406 47.2191 100.204 47.5694 98.8932 47.6604C98.6687 47.6786 98.4502 47.6832 98.2317 47.6832C97.2546 47.6832 96.32 47.5194 95.44 47.1736C94.4811 46.7961 93.856 46.2183 93.6861 45.3175C93.4737 45.4631 93.2855 45.5541 93.152 45.6815C90.7852 47.9516 88.4243 50.2307 86.0575 52.5008C85.7661 52.7829 85.4688 53.0649 85.141 53.3197C84.8255 53.5653 84.5099 53.6836 84.2125 53.6836C84.0304 53.6836 83.8544 53.6427 83.6845 53.5562C83.2475 53.3424 83.0715 52.9375 83.3325 52.469C83.9091 51.4317 84.4735 50.39 85.1593 49.3937C86.8828 46.8734 88.661 44.3758 90.421 41.8738C90.5606 41.6736 90.688 41.4689 90.8519 41.2232C88.7642 41.6782 86.81 42.1012 84.7587 42.5425C84.7526 42.5425 84.6859 42.5971 84.6798 42.6608C84.3824 45.0309 82.7802 46.9325 80.7957 48.6931C79.8429 49.5347 78.7808 50.2899 77.476 50.8176C77.0876 50.9723 76.6749 51.1042 76.2501 51.1906C75.9952 51.2407 75.7463 51.268 75.5157 51.268C74.3808 51.268 73.5797 50.672 73.5251 49.6894C73.5008 49.1844 73.6162 48.6794 73.6829 48.0243C73.3855 48.2245 73.1853 48.3564 72.985 48.4975C71.7773 49.3573 70.5878 50.2353 69.3497 51.0678C68.9309 51.3498 68.3969 51.5728 67.8689 51.732C67.6261 51.8048 67.3894 51.8412 67.171 51.8412C66.4184 51.8412 65.8419 51.4272 65.7508 50.7539C65.7083 50.4582 65.7144 50.1261 65.8479 49.8486C66.3152 48.9205 66.7825 47.9879 67.3712 47.1054C67.8689 46.3548 68.5365 45.6678 69.1251 44.9491C69.4771 44.5169 69.8291 44.0847 70.078 43.557C69.8656 43.6525 69.6349 43.7253 69.4468 43.839C67.2316 45.1401 65.4413 46.746 63.7238 48.3974C62.7831 49.3027 61.9213 50.2535 61.0231 51.1815C60.8047 51.409 60.5983 51.6455 60.3313 51.8412C60.1431 51.9822 59.9186 52.0641 59.688 52.0641C59.5302 52.0641 59.3724 52.0277 59.2146 51.9503C58.8565 51.7729 58.7837 51.4863 58.9415 51.2043C59.3238 50.5219 59.7244 49.8486 60.131 49.1753C62.3522 45.5086 64.5917 41.8419 66.7947 38.1707C67.1831 37.5201 67.4562 36.8332 67.7961 36.1645C67.9417 35.8824 68.0995 35.5913 68.318 35.3365C68.4515 35.1773 68.6518 35.0681 68.8885 35.0681M82.1794 41.0504C82.3069 41.0504 82.4404 41.0413 82.5739 41.0276C82.1248 40.2588 81.7303 39.9767 80.9292 39.9767C80.8018 39.9767 80.6622 39.9858 80.5044 39.9995C80.5893 40.6637 81.2387 41.0504 82.1733 41.0504M96.757 45.3994C96.9451 45.3994 97.1332 45.3767 97.3335 45.3221C97.8433 45.1856 98.3713 45.0537 98.8143 44.8353C100.398 44.0529 101.436 42.9337 102.061 41.6054C102.207 41.3006 102.268 40.9594 102.268 40.6318C102.268 40.2952 102.104 40.1314 101.782 40.1314C101.673 40.1314 101.551 40.1496 101.406 40.186C100.963 40.2997 100.52 40.4499 100.119 40.6364C97.9101 41.6736 96.1501 43.0793 94.4144 44.5396C94.8756 44.7443 95.264 44.8945 95.6099 45.081C95.9741 45.2811 96.3564 45.3949 96.757 45.3949M68.8824 34.8361C68.5607 34.8361 68.2573 34.9726 68.057 35.2091C67.8203 35.4821 67.6565 35.7869 67.5047 36.078C67.3773 36.3328 67.2559 36.5876 67.1345 36.8423C66.9464 37.2517 66.7461 37.6748 66.5094 38.0706C65.0286 40.5317 63.5114 43.0338 62.0427 45.454C61.3084 46.6596 60.574 47.8697 59.8458 49.0752C59.3542 49.8895 58.984 50.5128 58.6502 51.1087C58.4256 51.5091 58.5713 51.9048 59.0386 52.1323C59.2449 52.2324 59.4573 52.287 59.6819 52.287C59.9914 52.287 60.2888 52.1869 60.5376 51.9958C60.7622 51.8275 60.9503 51.6319 61.1263 51.4408L61.2537 51.3043C61.5511 50.995 61.8485 50.6811 62.1459 50.3718C62.7285 49.7576 63.3233 49.1253 63.9484 48.5248C65.7812 46.7642 67.4198 45.3357 69.374 44.1529C69.2162 44.3759 69.0402 44.5942 68.852 44.8217C68.6639 45.0491 68.4697 45.2766 68.2755 45.4995C67.8628 45.9772 67.4319 46.473 67.086 46.9917C66.473 47.9106 65.9814 48.8932 65.5506 49.7576C65.417 50.0215 65.3806 50.3627 65.4352 50.763C65.5384 51.5364 66.2303 52.055 67.1527 52.055C67.4137 52.055 67.6868 52.014 67.9599 51.9321C68.5729 51.7456 69.1191 51.5 69.5257 51.227C70.4057 50.6356 71.2735 50.0124 72.1111 49.4073C72.4631 49.1571 72.809 48.9023 73.1671 48.6521C73.2035 48.6248 73.2399 48.6021 73.2763 48.5748V48.593C73.2217 48.9888 73.1731 49.3345 73.1913 49.6894C73.2459 50.763 74.1684 51.4863 75.4854 51.4863C75.7463 51.4863 76.0194 51.459 76.2986 51.3999C76.7295 51.3134 77.1604 51.1815 77.5852 51.0086C78.7747 50.5264 79.8611 49.8349 80.996 48.8296C82.6528 47.3647 84.5888 45.3494 84.9468 42.729L87.9813 42.0694L90.2511 41.5781C90.2086 41.6418 90.1661 41.7009 90.1236 41.7646C89.5956 42.5198 89.0616 43.2704 88.5336 44.0256C87.3198 45.7452 86.0635 47.5239 84.8619 49.289C84.2428 50.1943 83.7148 51.1451 83.199 52.0641L83.023 52.378C82.7195 52.9193 82.9016 53.4561 83.4903 53.7427C83.7088 53.8519 83.9455 53.9065 84.1822 53.9065C84.5706 53.9065 84.959 53.7609 85.3292 53.4743C85.663 53.215 85.9603 52.933 86.2517 52.6555L86.2699 52.6373C87.2348 51.7092 88.1998 50.7857 89.1587 49.8577C90.5606 48.5111 91.9564 47.1645 93.3644 45.818C93.3948 45.7907 93.4251 45.7634 93.4615 45.7406C93.7225 46.464 94.3173 47.0008 95.264 47.3784C96.1683 47.7332 97.1575 47.9152 98.2014 47.9152C98.4259 47.9152 98.6565 47.9061 98.8932 47.8879C100.137 47.7969 101.369 47.483 102.662 46.928C105.709 45.6178 108.215 43.6389 110.552 40.6955C110.667 40.5454 110.746 40.418 110.794 40.2952C110.97 39.8357 110.77 39.4536 110.248 39.2443C110.048 39.1624 109.848 39.126 109.647 39.126C109.308 39.126 109.004 39.2398 108.761 39.4581C108.555 39.6446 108.391 39.8494 108.227 40.0495L108.118 40.186C106.789 41.7828 105.357 43.0657 103.73 44.1029C103.239 44.4168 102.741 44.7216 102.183 44.9991C102.346 44.849 102.498 44.7034 102.644 44.5487C103.032 44.1302 103.415 43.6525 103.815 43.0793C104.301 42.3787 104.549 41.6236 104.543 40.8365C104.531 39.449 103.506 38.5528 101.916 38.5528C101.491 38.5528 101.048 38.6165 100.586 38.7439C99.9371 38.9259 99.4091 39.1215 98.9721 39.3398C98.2681 39.6992 97.3517 40.1769 96.5021 40.7365C94.4933 42.0512 92.5633 43.5752 90.4756 45.5041C90.6334 45.2812 90.7973 45.0537 90.9551 44.8308C91.5862 43.9437 92.2356 43.0293 92.8547 42.1194C93.2188 41.5872 93.4494 41.1413 93.5769 40.7137C93.6982 40.3134 93.6011 39.9449 93.3038 39.6719C93.0185 39.4081 92.5876 39.2625 92.09 39.2625C91.9565 39.2625 91.8169 39.2716 91.6773 39.2943C91.4285 39.3307 91.1978 39.399 90.9733 39.4627C90.8762 39.49 90.773 39.5218 90.6698 39.5446C90.2632 39.6492 89.8505 39.7538 89.4439 39.863C88.394 40.136 87.3137 40.418 86.2395 40.6728C85.8693 40.7592 85.487 40.8047 85.0743 40.8502C84.9711 40.8638 84.8619 40.8729 84.7587 40.8866C84.7344 40.8456 84.7162 40.8047 84.698 40.7638C84.6009 40.5727 84.5159 40.4135 84.4067 40.2542C83.8787 39.5218 83.0715 38.6484 81.4754 38.4436C81.2933 38.4209 81.1113 38.4072 80.9292 38.4072C79.9521 38.4072 79.1085 38.7484 78.6837 39.3171C78.1618 40.0131 78.3317 40.8729 79.1267 41.5599C79.8793 42.2104 80.8867 42.4515 81.6757 42.588C81.9184 42.6289 82.1612 42.6699 82.4161 42.7108L82.5496 42.7336C82.5496 42.8064 82.5496 42.8746 82.5314 42.9383C82.319 44.062 81.6878 45.1447 80.474 46.4503C79.2785 47.7377 78.089 48.6521 76.7234 49.3254L76.6688 49.3527C76.3532 49.5074 76.0559 49.6575 75.6735 49.6575C75.6371 49.6575 75.6068 49.6575 75.5703 49.6575C75.5703 49.6302 75.5703 49.6029 75.5643 49.5711C75.5461 49.3982 75.5339 49.239 75.5825 49.1116L75.6735 48.8933C75.9406 48.2291 76.2197 47.5421 76.6203 46.9189C77.0694 46.2137 77.5913 45.5132 78.095 44.8399C78.362 44.4805 78.6291 44.1211 78.884 43.7617C79.0478 43.5297 79.236 43.2476 79.3513 42.9474C79.4969 42.5607 79.3088 42.2013 78.8233 41.9693C78.6352 41.8783 78.4409 41.8328 78.2407 41.8328C77.9494 41.8328 77.6702 41.9329 77.4274 42.1194C77.1058 42.3696 76.8205 42.6608 76.5717 42.9155C74.3808 45.1538 71.7955 47.3329 68.8824 49.3982C68.6214 49.5802 68.3423 49.744 68.0388 49.9123L68.0813 49.8213C68.2512 49.4619 68.4029 49.1207 68.6336 48.8068C69.0766 48.1927 69.556 47.574 70.0173 46.978C70.4785 46.3821 70.958 45.7634 71.401 45.1492C71.7712 44.6352 72.2385 43.9482 72.5055 43.2158C72.6451 42.8428 72.5662 42.4879 72.281 42.2104C72.0079 41.9375 71.5649 41.7828 71.0733 41.7828C70.9458 41.7828 70.8123 41.7919 70.6788 41.8146C70.0658 41.9147 69.4893 42.1558 69.1069 42.3287C67.5412 43.0475 66.2788 44.0301 65.0104 45.0582C64.8648 45.1765 64.713 45.2993 64.5674 45.4222C64.6523 45.2811 64.7434 45.1401 64.8283 44.9991C65.1682 44.4532 65.5202 43.8845 65.8419 43.3204C66.9343 41.3961 68.0449 39.4035 69.1494 37.3882C69.374 36.9742 69.55 36.5466 69.7199 36.1281L69.8352 35.846C69.9991 35.4548 69.8109 35.1136 69.3436 34.9271C69.198 34.8679 69.0462 34.8406 68.8945 34.8406L68.8824 34.8361ZM80.8625 40.2042C80.8625 40.2042 80.9049 40.2042 80.9231 40.2042C81.4208 40.2042 81.7364 40.2997 82.1005 40.8183C81.4572 40.8047 81.0202 40.5863 80.8625 40.2042ZM94.8877 44.485C96.5264 43.1112 98.1953 41.8101 100.283 40.832C100.635 40.6682 101.048 40.5226 101.503 40.4044C101.642 40.368 101.727 40.3589 101.782 40.3589C101.855 40.3589 101.958 40.3589 101.964 40.6364C101.964 40.9594 101.903 41.2687 101.776 41.5326C101.133 42.8928 100.077 43.9391 98.6444 44.6488C98.2742 44.8308 97.819 44.9536 97.3821 45.0719L97.2304 45.1128C97.0726 45.1538 96.9148 45.1765 96.757 45.1765C96.4414 45.1765 96.1197 45.0901 95.7859 44.9081C95.5371 44.7716 95.2701 44.6579 94.9848 44.5351L94.8817 44.4896L94.8877 44.485Z" fill="#FAECDC"/>
<path fill-rule="evenodd" clip-rule="evenodd" d="M45.7355 54.02C45.4259 54.02 45.1104 54.0109 44.7948 53.9927C44.3396 53.9699 43.8784 53.8971 43.4596 53.7879C42.61 53.565 41.9909 53.1693 41.6511 52.6324C41.3112 52.0911 41.2991 51.4633 41.6207 50.8127C42.1427 49.7664 43.0773 48.802 44.4124 47.9513C45.875 47.0187 47.4226 46.127 48.9156 45.2627C49.4739 44.9442 50.0262 44.6212 50.5785 44.2982C50.7423 44.2027 50.9487 44.1254 51.1671 44.0708C51.2764 44.0435 51.3856 44.0344 51.4949 44.0344C51.7922 44.0344 52.0471 44.139 52.2413 44.3346C52.5023 44.603 52.472 44.9124 52.1564 45.1762C51.9804 45.3218 51.774 45.4401 51.5738 45.5538C51.5009 45.5948 51.4281 45.6357 51.3614 45.6766C50.9001 45.9587 50.4389 46.2317 49.9716 46.5092C48.9095 47.1415 47.811 47.7966 46.7793 48.479C45.9479 49.0294 45.2135 49.6936 44.5399 50.326C44.0544 50.7809 43.5203 51.2904 43.8602 51.7863C44.0544 52.0729 44.4185 52.1957 45.0679 52.1957C45.2621 52.1957 45.4563 52.1866 45.6444 52.1775L45.8447 52.1684C48.6546 52.0456 51.1671 51.3041 53.3095 49.962C54.7417 49.0613 55.6582 48.156 56.1801 47.1051C56.8234 45.8222 56.3621 44.7668 54.8571 44.0571C54.2562 43.7751 53.6069 43.534 52.9757 43.2974C52.6419 43.1746 52.3142 43.0517 51.9865 42.9198C51.7437 42.8243 51.4949 42.7333 51.246 42.6378C50.6149 42.4012 49.9655 42.1601 49.3829 41.8507C48.5575 41.4095 48.0781 40.859 47.9931 40.254C47.9081 39.6307 48.248 38.9893 48.9763 38.4024C49.9898 37.5836 51.2521 36.8875 52.9575 36.2233C55.8342 35.0906 58.1768 34.5856 60.5497 34.5856H60.7014C61.3751 34.5947 62.0609 34.7039 62.6313 34.8995C63.2564 35.1133 63.6873 35.4409 63.8755 35.8503C64.0697 36.2688 64.0029 36.7465 63.6813 37.2287C63.4446 37.5836 63.129 37.9111 62.7709 38.1886C61.1263 39.4442 59.2024 40.486 56.8841 41.3822C56.617 41.4868 56.3318 41.555 56.0648 41.5823C55.9919 41.5914 55.9191 41.596 55.8463 41.596C55.3122 41.596 54.8874 41.3685 54.76 41.0228C54.5779 40.5133 55.0755 40.2722 55.47 40.1311C57.1997 39.517 58.8504 38.6845 60.6589 37.5017C60.9381 37.3197 61.2173 37.0968 61.5511 36.792C61.63 36.7192 61.6846 36.6191 61.7514 36.5054C61.7696 36.469 61.7878 36.4326 61.812 36.3962C61.454 36.2233 61.0595 36.146 60.5679 36.146C60.3494 36.146 60.137 36.1596 59.9246 36.1733H59.8518C57.9037 36.3007 55.9737 36.7601 54.1227 37.5472C53.3338 37.8838 52.5751 38.2932 51.8469 38.689C51.6041 38.8209 51.3553 38.9574 51.1125 39.0848C50.9062 39.194 50.7241 39.3578 50.5724 39.4988C50.2993 39.7535 50.1961 39.931 50.2265 40.072C50.2568 40.2085 50.4328 40.3495 50.7848 40.5087C51.2157 40.7089 51.6891 40.8772 52.1442 41.041C52.387 41.1274 52.6237 41.2138 52.8604 41.3048C53.1699 41.4231 53.4915 41.5414 53.8071 41.6551C54.5536 41.9281 55.3244 42.2056 56.0344 42.5468C58.7472 43.8479 59.5605 45.8086 58.3224 48.065C57.4121 49.7209 55.8342 51.072 53.4915 52.1957C50.9729 53.4013 48.3633 54.0109 45.7415 54.0109L45.7355 54.02Z" fill="#BD8448"/>
<path d="M60.5428 34.7082C60.5913 34.7082 60.6459 34.7082 60.6945 34.7082C61.3256 34.7127 61.9932 34.8174 62.5637 35.013C63.7836 35.4315 64.1477 36.2868 63.5408 37.1875C63.3163 37.5242 63.0128 37.8471 62.6608 38.1156C60.9554 39.4166 58.977 40.4539 56.8164 41.2864C56.5797 41.3774 56.3127 41.4501 56.0457 41.4774C55.9789 41.4865 55.9122 41.4865 55.8515 41.4865C55.3781 41.4865 55.02 41.2955 54.9108 40.9952C54.7955 40.6722 54.9715 40.4402 55.542 40.2355C57.4658 39.5531 59.1712 38.6296 60.7673 37.5878C61.1011 37.374 61.3985 37.1193 61.6776 36.8645C61.8172 36.7326 61.884 36.5597 62.0114 36.355C61.5259 36.0911 61.0465 36.0275 60.5731 36.0275C60.3243 36.0275 60.0815 36.0456 59.8388 36.0593C57.7753 36.1912 55.8393 36.6825 54.049 37.4423C52.9869 37.8926 52.022 38.4613 51.0206 38.989C50.8021 39.1027 50.6201 39.2665 50.4501 39.4257C49.8918 39.958 49.9221 40.2446 50.699 40.6085C51.3605 40.9179 52.0887 41.1408 52.7867 41.4092C53.8427 41.8141 54.9472 42.1689 55.9486 42.6466C58.6068 43.9204 59.3715 45.8447 58.1759 48.0283C57.2109 49.7935 55.5055 51.0991 53.3996 52.1045C51.0509 53.2327 48.502 53.906 45.7285 53.906C45.419 53.906 45.1095 53.8969 44.8 53.8832C44.363 53.8605 43.92 53.7922 43.5073 53.6876C41.8383 53.2509 41.1465 52.109 41.7655 50.8625C42.3238 49.7298 43.3252 48.8063 44.5147 48.0465C46.5053 46.7773 48.6112 45.6036 50.6747 44.3935C50.8325 44.3025 51.0267 44.2297 51.2148 44.1888C51.3119 44.166 51.4029 44.1569 51.494 44.1569C51.7367 44.1569 51.9491 44.2388 52.1191 44.4117C52.3618 44.6619 52.2829 44.9121 52.0402 45.1123C51.8156 45.2988 51.5304 45.4444 51.2634 45.6036C49.7279 46.5362 48.1561 47.4324 46.6753 48.4059C45.8377 48.9564 45.1095 49.6115 44.4176 50.2711C43.9382 50.7215 43.3373 51.2856 43.7258 51.8543C43.9928 52.2455 44.5208 52.3274 45.067 52.3274C45.334 52.3274 45.6011 52.3092 45.8499 52.2955C48.6901 52.1727 51.2148 51.4312 53.4057 50.0619C54.6741 49.2657 55.7301 48.3422 56.3188 47.1594C56.9742 45.8493 56.5251 44.7211 54.9351 43.975C54.0187 43.5428 53.0112 43.2153 52.0523 42.8377C51.1845 42.4919 50.262 42.2008 49.467 41.7777C47.8162 40.8951 47.6948 39.6214 49.0846 38.4977C50.2074 37.5878 51.5729 36.91 53.0234 36.3413C55.3842 35.4133 57.8421 34.7173 60.5488 34.7173M60.5488 34.4898C58.1455 34.4898 55.7847 34.9993 52.8838 36.1412C51.1663 36.8145 49.8918 37.5151 48.8661 38.343C48.1075 38.9572 47.7495 39.6259 47.8405 40.2855C47.9255 40.9224 48.4292 41.5002 49.291 41.9642C49.8796 42.2781 50.5351 42.5238 51.1723 42.7603C51.4212 42.8513 51.67 42.9468 51.9127 43.0424C52.2405 43.1698 52.5742 43.2926 52.902 43.42C53.5331 43.652 54.1825 43.8931 54.7773 44.1751C56.2156 44.853 56.6526 45.8584 56.0396 47.0867C55.5298 48.1148 54.6316 49.0064 53.2176 49.8935C51.0995 51.2219 48.6173 51.9543 45.8438 52.0772L45.6435 52.0863C45.4615 52.0954 45.2673 52.1045 45.0791 52.1045C44.4965 52.1045 44.1749 51.9998 44.0049 51.7587C43.7318 51.3584 44.1202 50.9399 44.6543 50.4349C45.4433 49.6934 46.1169 49.102 46.8877 48.5879C47.9194 47.9101 49.0118 47.255 50.0739 46.6272C50.5412 46.3497 51.0085 46.0722 51.4697 45.7901C51.5365 45.7492 51.6093 45.7082 51.6821 45.6673C51.8885 45.549 52.1009 45.4262 52.2829 45.2761C52.6471 44.9713 52.6835 44.6028 52.38 44.2889C52.1616 44.0614 51.8581 43.9431 51.5122 43.9431C51.3908 43.9431 51.2694 43.9568 51.142 43.9841C50.9053 44.0387 50.6868 44.1206 50.5047 44.2297C49.9464 44.5573 49.3881 44.8803 48.8297 45.2033C47.3368 46.0631 45.7953 46.9547 44.3326 47.8873C42.9793 48.7517 42.0265 49.7298 41.4985 50.7943C41.1647 51.4721 41.1768 52.1318 41.5349 52.7004C41.8869 53.26 42.5423 53.6785 43.4284 53.9105C43.8532 54.0242 44.3266 54.097 44.8 54.1198C45.1155 54.138 45.4372 54.1471 45.7528 54.1471C48.411 54.1471 51.0449 53.5284 53.5878 52.3137C55.9607 51.1764 57.5568 49.8071 58.4793 48.133C59.7477 45.8174 58.9163 43.8112 56.1367 42.4737C55.4206 42.128 54.6438 41.8459 53.8912 41.5775C53.5756 41.4638 53.26 41.3501 52.9505 41.2272C52.7138 41.1362 52.4711 41.0498 52.2283 40.9634C51.7792 40.7996 51.3058 40.6358 50.8871 40.4357C50.5836 40.2946 50.4259 40.1764 50.4016 40.0717C50.3773 39.9671 50.4805 39.8079 50.7172 39.585C50.8628 39.4485 51.0327 39.2938 51.2209 39.1937C51.4697 39.0618 51.7125 38.9299 51.9613 38.7934C52.6896 38.3976 53.4421 37.9882 54.225 37.6561C56.0578 36.8782 57.9635 36.4232 59.8934 36.3004H59.9662C60.1725 36.2822 60.391 36.2686 60.5974 36.2686C61.0101 36.2686 61.3439 36.3277 61.6534 36.4551V36.4733C61.5866 36.5825 61.532 36.6734 61.4652 36.7326C61.1436 37.0283 60.8644 37.2512 60.5913 37.4286C58.7888 38.6023 57.1502 39.4348 55.4327 40.0399C55.1778 40.1309 54.401 40.4038 54.6438 41.0635C54.7894 41.4638 55.2689 41.7231 55.8757 41.7231C55.9546 41.7231 56.0335 41.7231 56.1124 41.7095C56.3916 41.6822 56.6951 41.6048 56.9803 41.4956C59.3108 40.5949 61.2468 39.544 62.9036 38.2839C63.2738 38.0018 63.5954 37.6606 63.8382 37.2967C64.178 36.7872 64.2509 36.2822 64.0385 35.8318C63.8321 35.3951 63.3769 35.0448 62.7154 34.8174C62.1267 34.6172 61.4167 34.4989 60.7248 34.4944H60.567L60.5488 34.4898Z" fill="#FAECDC"/>
</svg>
