<svg width="25" height="25" viewBox="0 0 25 25" fill="none" xmlns="http://www.w3.org/2000/svg">
<path d="M6.25 6.25C5.0068 6.25 3.81451 6.74386 2.93544 7.62294C2.05636 8.50201 1.5625 9.6943 1.5625 10.9375V20.3125H10.9375V10.9375C10.9375 9.6943 10.4436 8.50201 9.56456 7.62294C8.68549 6.74386 7.4932 6.25 6.25 6.25ZM6.25 4.6875H18.75C20.4076 4.6875 21.9973 5.34598 23.1694 6.51808C24.3415 7.69018 25 9.2799 25 10.9375V20.3125C25 20.7269 24.8354 21.1243 24.5424 21.4174C24.2493 21.7104 23.8519 21.875 23.4375 21.875H1.5625C1.1481 21.875 0.750671 21.7104 0.457646 21.4174C0.16462 21.1243 0 20.7269 0 20.3125V10.9375C0 9.2799 0.65848 7.69018 1.83058 6.51808C3.00268 5.34598 4.5924 4.6875 6.25 4.6875ZM10.3844 6.25C11.0501 6.8359 11.5832 7.5571 11.9481 8.36544C12.3129 9.17377 12.5011 10.0506 12.5 10.9375V20.3125H23.4375V10.9375C23.4375 9.6943 22.9436 8.50201 22.0646 7.62294C21.1855 6.74386 19.9932 6.25 18.75 6.25H10.3844Z" fill="#1C1306"/>
<path d="M18.4266 13.2812H14.0625V11.7188H21.875C22.0822 11.7188 22.2809 11.8011 22.4274 11.9476C22.5739 12.0941 22.6562 12.2928 22.6562 12.5V14.0625C22.6562 14.2697 22.5739 14.4684 22.4274 14.6149C22.2809 14.7614 22.0822 14.8438 21.875 14.8438H20.3125C20.2098 14.8439 20.1081 14.8239 20.0132 14.7847C19.9183 14.7456 19.8321 14.6881 19.7594 14.6156L18.4266 13.2812ZM7.8125 10.9375C7.8125 11.8 7.1125 10.9375 6.25 10.9375C5.3875 10.9375 4.6875 11.8 4.6875 10.9375C4.6875 10.5231 4.85212 10.1257 5.14515 9.83265C5.43817 9.53962 5.8356 9.375 6.25 9.375C6.6644 9.375 7.06183 9.53962 7.35485 9.83265C7.64788 10.1257 7.8125 10.5231 7.8125 10.9375Z" fill="#1C1306"/>
</svg>
