<svg width="25" height="25" viewBox="0 0 25 25" fill="none" xmlns="http://www.w3.org/2000/svg">
<g clip-path="url(#clip0_2455_7614)">
<path d="M14.0625 0H17.1563C17.3813 1.11719 18 2.52656 19.0859 3.925C20.1484 5.29531 21.5578 6.25 23.4375 6.25V9.375C20.6984 9.375 18.6406 8.10312 17.1875 6.51719V17.1875C17.1875 18.7327 16.7293 20.2431 15.8709 21.5279C15.0124 22.8127 13.7923 23.814 12.3647 24.4053C10.9372 24.9966 9.36634 25.1513 7.85086 24.8499C6.33538 24.5484 4.94333 23.8044 3.85073 22.7118C2.75813 21.6192 2.01407 20.2271 1.71262 18.7116C1.41117 17.1962 1.56589 15.6253 2.15719 14.1978C2.7485 12.7702 3.74985 11.5501 5.03461 10.6916C6.31937 9.83319 7.82984 9.375 9.375 9.375V12.5C8.4479 12.5 7.54162 12.7749 6.77077 13.29C5.99991 13.8051 5.3991 14.5371 5.04432 15.3937C4.68953 16.2502 4.5967 17.1927 4.77757 18.102C4.95844 19.0113 5.40488 19.8465 6.06044 20.5021C6.716 21.1576 7.55123 21.6041 8.46052 21.7849C9.3698 21.9658 10.3123 21.873 11.1688 21.5182C12.0254 21.1634 12.7574 20.5626 13.2725 19.7917C13.7876 19.0209 14.0625 18.1146 14.0625 17.1875V0Z" fill="#BD8448"/>
</g>
<defs>
<clipPath id="clip0_2455_7614">
<rect width="25" height="25" fill="white"/>
</clipPath>
</defs>
</svg>
